<?xml version="1.0" standalone="no"?>
<!DOCTYPE svg PUBLIC "-//W3C//DTD SVG 20010904//EN"
 "http://www.w3.org/TR/2001/REC-SVG-20010904/DTD/svg10.dtd">
<svg version="1.0" xmlns="http://www.w3.org/2000/svg"
 width="300.000000pt" height="300.000000pt" viewBox="0 0 300.000000 300.000000"
 preserveAspectRatio="xMidYMid meet">
<metadata>
Created by potrace 1.11, written by Peter Selinger 2001-2013
</metadata>
<g transform="translate(0.000000,300.000000) scale(0.100000,-0.100000)"
fill="#000000" stroke="none">
<path d="M0 1500 l0 -1500 1500 0 1500 0 0 1500 0 1500 -1500 0 -1500 0 0
-1500z m1890 838 c88 -44 116 -165 57 -242 -14 -17 -66 -56 -118 -86 -135 -80
-243 -190 -297 -300 -22 -47 -43 -97 -46 -112 l-6 -28 174 0 c145 0 176 3 187
16 33 40 114 59 143 35 24 -20 30 -75 13 -110 -9 -18 -11 -33 -6 -37 13 -8 11
-108 -3 -122 -7 -7 -35 -12 -64 -12 -47 0 -55 3 -83 35 l-30 35 -167 0 -166 0
6 -27 c14 -60 77 -171 131 -230 72 -80 155 -142 260 -194 102 -50 129 -85 129
-165 0 -87 -67 -154 -154 -154 -58 0 -107 26 -137 72 -23 34 -25 45 -21 102 5
61 4 64 -23 80 -57 34 -151 120 -204 188 -66 84 -109 170 -131 261 l-17 67
-153 0 -154 0 0 -23 c0 -29 -18 -47 -46 -47 -13 0 -66 26 -119 57 -94 56 -116
81 -102 117 9 23 203 128 229 124 15 -2 28 -15 37 -35 l15 -33 147 0 148 0 11
58 c34 160 137 313 296 438 49 39 50 40 38 69 -32 74 2 163 76 202 54 29 94
29 150 1z"/>
<path d="M1782 2243 c-34 -30 -33 -75 3 -99 21 -14 30 -14 55 -4 50 21 53 86
4 108 -33 16 -38 15 -62 -5z"/>
<path d="M1805 835 c-14 -13 -25 -31 -25 -40 0 -20 44 -65 63 -65 25 0 67 41
67 65 0 24 -42 65 -67 65 -8 0 -25 -11 -38 -25z"/>
</g>
</svg>
