<?xml version="1.0" encoding="utf-8"?>
<!-- Generator: Adobe Illustrator 16.0.0, SVG Export Plug-In . SVG Version: 6.00 Build 0)  -->
<!DOCTYPE svg PUBLIC "-//W3C//DTD SVG 1.1//EN" "http://www.w3.org/Graphics/SVG/1.1/DTD/svg11.dtd">
<svg version="1.1" id="Layer_1" xmlns="http://www.w3.org/2000/svg" xmlns:xlink="http://www.w3.org/1999/xlink" x="0px" y="0px"
	 width="64px" height="64px" viewBox="0 0 64 64" enable-background="new 0 0 64 64" xml:space="preserve">
<path fill-rule="evenodd" clip-rule="evenodd" fill="#455A64" d="M54.082,9.789c-5.859-5.866-13.651-9.098-21.953-9.101
	c-17.103,0-31.025,13.919-31.032,31.03c-0.002,5.47,1.427,10.808,4.143,15.513L0.838,63.312l16.45-4.314
	c4.532,2.471,9.636,3.773,14.83,3.775h0.013l0,0c17.102,0,31.024-13.922,31.031-31.031C63.166,23.45,59.94,15.654,54.082,9.789
	 M32.131,57.533H32.12c-4.628-0.002-9.168-1.246-13.128-3.596l-0.942-0.559l-9.761,2.561l2.605-9.518l-0.614-0.979
	c-2.582-4.104-3.945-8.852-3.943-13.725c0.005-14.22,11.577-25.79,25.803-25.79c6.89,0.002,13.365,2.688,18.235,7.564
	c4.869,4.874,7.549,11.355,7.546,18.247C57.917,45.961,46.346,57.533,32.131,57.533 M46.278,38.215
	c-0.775-0.387-4.588-2.264-5.299-2.521c-0.71-0.258-1.228-0.389-1.744,0.387c-0.518,0.777-2.003,2.523-2.456,3.041
	c-0.451,0.518-0.904,0.582-1.68,0.193c-0.774-0.387-3.273-1.205-6.234-3.848c-2.305-2.055-3.862-4.596-4.314-5.371
	c-0.452-0.777-0.048-1.197,0.341-1.583c0.348-0.348,0.776-0.907,1.163-1.359c0.387-0.453,0.516-0.776,0.775-1.293
	s0.13-0.97-0.064-1.358c-0.195-0.388-1.746-4.205-2.392-5.758c-0.629-1.511-1.268-1.306-1.744-1.331
	c-0.453-0.022-0.97-0.027-1.487-0.027c-0.516,0-1.356,0.195-2.068,0.97c-0.709,0.776-2.713,2.652-2.713,6.469
	c0,3.817,2.778,7.504,3.166,8.021c0.388,0.518,5.469,8.35,13.246,11.708c1.849,0.799,3.294,1.277,4.42,1.633
	c1.857,0.592,3.548,0.508,4.883,0.307c1.49-0.221,4.589-1.875,5.234-3.686c0.646-1.812,0.646-3.365,0.452-3.688
	S47.053,38.604,46.278,38.215"/>
</svg>
